<svg xmlns="http://www.w3.org/2000/svg" width="39.046" height="33.554" viewBox="0 0 39.046 33.554">
  <g id="basket" transform="translate(0 -0.001)">
    <path id="Path_1" data-name="Path 1" d="M246.763,201.513a.763.763,0,1,0-.763-.763A.763.763,0,0,0,246.763,201.513Zm0,0" transform="translate(-227.24 -184.736)" fill="#fff"/>
    <path id="Path_2" data-name="Path 2" d="M36,10.676h-4.51L24.548,1.132A2.288,2.288,0,0,0,20.574,3.4a.777.777,0,0,0,.059.09l5.441,7.187h-13.1l5.441-7.187a.818.818,0,0,0,.059-.09A2.288,2.288,0,0,0,14.5,1.131L7.56,10.676H3.05a3.051,3.051,0,0,0-.977,5.941.759.759,0,0,0,.467.16.738.738,0,0,1,.1.007.76.76,0,0,1,.648.619L5.885,31.677a2.287,2.287,0,0,0,2.251,1.878H30.91a2.287,2.287,0,0,0,2.251-1.879L35.755,17.4a.761.761,0,0,1,.649-.619.708.708,0,0,1,.1-.007.758.758,0,0,0,.469-.162A3.05,3.05,0,0,0,36,10.676ZM21.886,2.618a.763.763,0,0,1,1.353-.7.717.717,0,0,0,.05.079l6.31,8.682H27.987Zm-6.13-.624a.818.818,0,0,0,.05-.078.763.763,0,0,1,1.354.7l-6.1,8.058H9.446ZM36,15.252H22.573a.759.759,0,1,0,0,1.517H34.348a2.315,2.315,0,0,0-.094.353L31.66,31.4a.762.762,0,0,1-.75.626H8.136a.763.763,0,0,1-.751-.626L4.791,17.13a2.3,2.3,0,0,0-.094-.353H16.472a.763.763,0,0,0,0-1.525H3.05a1.525,1.525,0,1,1,0-3.05H36a1.525,1.525,0,0,1,0,3.05Zm0,0" transform="translate(0 0)" fill="#fff"/>
    <path id="Path_3" data-name="Path 3" d="M228.288,249.988A2.29,2.29,0,0,0,226,252.276v6.1a2.288,2.288,0,1,0,4.576,0v-6.1A2.287,2.287,0,0,0,228.288,249.988Zm.763,8.389a.763.763,0,1,1-1.525,0v-6.1a.763.763,0,1,1,1.525,0Zm0,0" transform="translate(-208.765 -230.923)" fill="#fff"/>
    <path id="Path_4" data-name="Path 4" d="M328.288,260.665a2.29,2.29,0,0,0,2.288-2.288v-6.1a2.288,2.288,0,0,0-4.576,0v6.1A2.29,2.29,0,0,0,328.288,260.665Zm-.763-8.389a.763.763,0,1,1,1.525,0v6.1a.763.763,0,1,1-1.525,0Zm0,0" transform="translate(-301.139 -230.923)" fill="#fff"/>
    <path id="Path_5" data-name="Path 5" d="M128.288,249.988A2.29,2.29,0,0,0,126,252.276v6.1a2.288,2.288,0,1,0,4.576,0v-6.1A2.287,2.287,0,0,0,128.288,249.988Zm.763,8.389a.763.763,0,1,1-1.525,0v-6.1a.763.763,0,0,1,1.525,0Zm0,0" transform="translate(-116.391 -230.923)" fill="#fff"/>
  </g>
</svg>
